<svg viewBox="0 0 600 600" xmlns="http://www.w3.org/2000/svg">
  <defs>
    <style>
      .axis-label { font: bold 14px sans-serif; }
      .region-label { font: bold 16px sans-serif; }
      .style-label { font: italic 12px sans-serif; fill: #666; }
      .coord-label { font: 10px monospace; fill: #999; }
      .threshold-line { stroke: #333; stroke-width: 1; stroke-dasharray: 5,5; }
      .poker-face-zone { fill: rgba(100, 200, 100, 0.3); stroke: #4a4; stroke-width: 2; }
      .grid-line { stroke: #ddd; stroke-width: 0.5; }
    </style>
  </defs>

  <!-- Background -->
  <rect x="50" y="50" width="500" height="500" fill="#fafafa" stroke="#333" stroke-width="2"/>

  <!-- Grid lines -->
  <g class="grid-line">
    <!-- Vertical grid (composure) -->
    <line x1="150" y1="50" x2="150" y2="550"/>
    <line x1="250" y1="50" x2="250" y2="550"/>
    <line x1="300" y1="50" x2="300" y2="550"/>
    <line x1="350" y1="50" x2="350" y2="550"/>
    <line x1="450" y1="50" x2="450" y2="550"/>
    <!-- Horizontal grid (confidence) -->
    <line x1="50" y1="150" x2="550" y2="150"/>
    <line x1="50" y1="250" x2="550" y2="250"/>
    <line x1="50" y1="300" x2="550" y2="300"/>
    <line x1="50" y1="350" x2="550" y2="350"/>
    <line x1="50" y1="450" x2="550" y2="450"/>
  </g>

  <!-- Quadrant regions (colored backgrounds) -->
  <!-- SHAKEN: bottom-left (comp < 0.35, conf < 0.35) -->
  <rect x="50" y="375" width="125" height="175" fill="rgba(200, 80, 80, 0.2)"/>

  <!-- GUARDED: top-left (comp > 0.5, conf <= 0.5) -->
  <rect x="50" y="50" width="200" height="250" fill="rgba(100, 100, 200, 0.15)"/>

  <!-- OVERHEATED: bottom-right (comp <= 0.5, conf > 0.5) -->
  <rect x="300" y="300" width="250" height="250" fill="rgba(255, 150, 50, 0.25)"/>

  <!-- COMMANDING: top-right (comp > 0.5, conf > 0.5) -->
  <rect x="300" y="50" width="250" height="250" fill="rgba(255, 215, 0, 0.2)"/>

  <!-- Threshold lines -->
  <!-- Composure = 0.5 (vertical) -->
  <line x1="300" y1="50" x2="300" y2="550" class="threshold-line" stroke-width="2"/>
  <!-- Confidence = 0.5 (horizontal) -->
  <line x1="50" y1="300" x2="550" y2="300" class="threshold-line" stroke-width="2"/>
  <!-- Shaken gate: composure = 0.35 -->
  <line x1="175" y1="50" x2="175" y2="550" class="threshold-line" stroke="#c55"/>
  <!-- Shaken gate: confidence = 0.35 -->
  <line x1="50" y1="375" x2="550" y2="375" class="threshold-line" stroke="#c55"/>

  <!-- Focused threshold: composure = 0.8 -->
  <line x1="450" y1="50" x2="450" y2="550" stroke="#4a4" stroke-width="1" stroke-dasharray="3,3"/>

  <!-- Poker Face Zone (ellipse) -->
  <!-- Center: composure=0.65 (x=375), confidence=0.65 (y=225) -->
  <ellipse cx="375" cy="200" rx="80" ry="60" class="poker-face-zone"/>

  <!-- Axis labels -->
  <text x="300" y="590" text-anchor="middle" class="axis-label">COMPOSURE</text>
  <text x="15" y="300" text-anchor="middle" class="axis-label" transform="rotate(-90, 15, 300)">CONFIDENCE</text>

  <!-- Axis values -->
  <text x="50" y="570" class="coord-label">0.0</text>
  <text x="175" y="570" class="coord-label">0.35</text>
  <text x="290" y="570" class="coord-label">0.5</text>
  <text x="440" y="570" class="coord-label">0.8</text>
  <text x="540" y="570" class="coord-label">1.0</text>

  <text x="30" y="555" class="coord-label">0.0</text>
  <text x="30" y="380" class="coord-label">0.35</text>
  <text x="30" y="305" class="coord-label">0.5</text>
  <text x="30" y="55" class="coord-label">1.0</text>

  <!-- Region labels -->
  <!-- SHAKEN -->
  <text x="100" y="480" text-anchor="middle" class="region-label" fill="#933">SHAKEN</text>
  <text x="100" y="500" text-anchor="middle" class="style-label">Desperate</text>
  <text x="100" y="515" text-anchor="middle" class="style-label">Unpredictable</text>

  <!-- GUARDED -->
  <text x="150" y="180" text-anchor="middle" class="region-label" fill="#446">GUARDED</text>
  <text x="150" y="200" text-anchor="middle" class="style-label">Patient</text>
  <text x="150" y="215" text-anchor="middle" class="style-label">Trap-setting</text>

  <!-- OVERHEATED -->
  <text x="425" y="420" text-anchor="middle" class="region-label" fill="#a60">OVERHEATED</text>
  <text x="425" y="440" text-anchor="middle" class="style-label">Exploitation</text>
  <text x="425" y="455" text-anchor="middle" class="style-label">Aggression</text>
  <text x="425" y="470" text-anchor="middle" class="style-label">"Gordon Ramsay"</text>

  <!-- COMMANDING -->
  <text x="425" y="130" text-anchor="middle" class="region-label" fill="#a80">COMMANDING</text>
  <text x="425" y="150" text-anchor="middle" class="style-label">Pressure</text>
  <text x="425" y="165" text-anchor="middle" class="style-label">Value Extraction</text>

  <!-- POKER FACE ZONE -->
  <text x="375" y="195" text-anchor="middle" class="region-label" fill="#262">POKER</text>
  <text x="375" y="213" text-anchor="middle" class="region-label" fill="#262">FACE</text>
  <text x="375" y="235" text-anchor="middle" class="style-label">GTO Play</text>

  <!-- Annotations for thresholds -->
  <text x="178" y="45" class="coord-label" fill="#933">Shaken Gate</text>
  <text x="453" y="45" class="coord-label" fill="#4a4">Focused</text>

  <!-- Player baseline markers -->
  <!-- Batman: high poise, low ego → high composure baseline, mid-high confidence baseline -->
  <circle cx="430" cy="200" r="6" fill="#333" stroke="#fff" stroke-width="2"/>
  <text x="445" y="205" font-size="11" fill="#333">Batman</text>

  <!-- Gordon Ramsay: low poise, high ego → low composure baseline, low confidence baseline -->
  <circle cx="340" cy="380" r="6" fill="#c50" stroke="#fff" stroke-width="2"/>
  <text x="280" y="385" font-size="11" fill="#c50">Ramsay</text>

  <!-- Bob Ross: high poise, low ego → high composure, mid confidence -->
  <circle cx="400" cy="280" r="6" fill="#66a" stroke="#fff" stroke-width="2"/>
  <text x="410" y="295" font-size="11" fill="#66a">Bob Ross</text>

  <!-- Legend -->
  <rect x="55" y="55" width="120" height="85" fill="white" stroke="#ccc"/>
  <text x="115" y="72" text-anchor="middle" font-size="11" font-weight="bold">LEGEND</text>
  <line x1="65" y1="85" x2="95" y2="85" stroke="#333" stroke-width="2" stroke-dasharray="5,5"/>
  <text x="100" y="89" font-size="10">Quadrant boundary</text>
  <line x1="65" y1="100" x2="95" y2="100" stroke="#c55" stroke-dasharray="5,5"/>
  <text x="100" y="104" font-size="10">Shaken threshold</text>
  <ellipse cx="80" cy="118" rx="15" ry="10" fill="rgba(100,200,100,0.3)" stroke="#4a4"/>
  <text x="100" y="122" font-size="10">Poker Face zone</text>
  <circle cx="80" cy="132" r="4" fill="#333"/>
  <text x="100" y="136" font-size="10">Player baseline</text>
</svg>