<svg xmlns="http://www.w3.org/2000/svg" viewBox="0 0 32 32">
  <!-- Outer ring of poker chip -->
  <circle cx="16" cy="16" r="14" fill="#dc2626" stroke="#991b1b" stroke-width="1"/>
  
  <!-- White stripes around edge -->
  <path d="M 16 2 A 14 14 0 0 1 26.5 7.5 L 23 11 A 9 9 0 0 0 16 7 Z" fill="white" opacity="0.9"/>
  <path d="M 26.5 7.5 A 14 14 0 0 1 30 16 L 25 16 A 9 9 0 0 0 23 11 Z" fill="white" opacity="0.9"/>
  <path d="M 30 16 A 14 14 0 0 1 26.5 24.5 L 23 21 A 9 9 0 0 0 25 16 Z" fill="white" opacity="0.9"/>
  <path d="M 26.5 24.5 A 14 14 0 0 1 16 30 L 16 25 A 9 9 0 0 0 23 21 Z" fill="white" opacity="0.9"/>
  <path d="M 16 30 A 14 14 0 0 1 5.5 24.5 L 9 21 A 9 9 0 0 0 16 25 Z" fill="white" opacity="0.9"/>
  <path d="M 5.5 24.5 A 14 14 0 0 1 2 16 L 7 16 A 9 9 0 0 0 9 21 Z" fill="white" opacity="0.9"/>
  <path d="M 2 16 A 14 14 0 0 1 5.5 7.5 L 9 11 A 9 9 0 0 0 7 16 Z" fill="white" opacity="0.9"/>
  <path d="M 5.5 7.5 A 14 14 0 0 1 16 2 L 16 7 A 9 9 0 0 0 9 11 Z" fill="white" opacity="0.9"/>
  
  <!-- Inner circle -->
  <circle cx="16" cy="16" r="9" fill="#dc2626" stroke="#991b1b" stroke-width="0.5"/>
  
  <!-- Center design - spade -->
  <path d="M16 10c-1.5 0-3 1.5-3 3 0 1.5 1 2.5 2 3-0.3 0.5-1 1-1.5 1h0.5c1 0 1.5 0.5 1.5 1.5v1.5h1v-1.5c0-1 0.5-1.5 1.5-1.5h0.5c-0.5 0-1.2-0.5-1.5-1 1-0.5 2-1.5 2-3 0-1.5-1.5-3-3-3z" fill="white"/>
</svg>